<svg fill="#ff3f22" height="200px" width="200px" version="1.1" id="Capa_1" xmlns="http://www.w3.org/2000/svg" xmlns:xlink="http://www.w3.org/1999/xlink" viewBox="0 0 489.525 489.525" xml:space="preserve"><g id="SVGRepo_bgCarrier" stroke-width="0"></g><g id="SVGRepo_tracerCarrier" stroke-linecap="round" stroke-linejoin="round"></g><g id="SVGRepo_iconCarrier"> <g> <path d="M156.212,48.725l3.7-15.2l-12-10.1c-2.3-1.9-1.1-5.6,1.9-5.8l15.6-1.1l5.9-14.5c1.1-2.7,5-2.7,6.1,0l5.9,14.5l15.6,1.1 c2.9,0.2,4.1,3.9,1.9,5.8l-12,10.1l3.7,15.2c0.7,2.9-2.4,5.1-4.9,3.6l-13.3-8.3l-13.3,8.3 C158.612,53.925,155.512,51.625,156.212,48.725z M258.112,52.325c2.5,1.6,5.6-0.7,4.9-3.6l-3.7-15.2l12-10.1 c2.3-1.9,1.1-5.6-1.9-5.8l-15.6-1.1l-6-14.5c-1.1-2.7-5-2.7-6.1,0l-5.9,14.5l-15.6,1.1c-2.9,0.2-4.1,3.9-1.9,5.8l12,10.1l-3.7,15.2 c-0.7,2.9,2.4,5.1,4.9,3.6l13.3-8.3L258.112,52.325z M339.813,17.625l-15.6-1.1l-5.9-14.5c-1.1-2.7-5-2.7-6.1,0l-5.9,14.5 l-15.6,1.1c-2.9,0.2-4.1,3.9-1.9,5.8l12,10.1l-3.8,15.2c-0.7,2.9,2.4,5.1,4.9,3.6l13.3-8.3l13.3,8.3c2.5,1.6,5.6-0.7,4.9-3.6 l-3.7-15.2l12-10.1C343.913,21.525,342.712,17.825,339.813,17.625z M234.212,76.025l-15.6-1.1l-5.9-14.5c-1.1-2.7-5-2.7-6.1,0 l-5.9,14.5l-15.6,1.1c-2.9,0.2-4.1,3.9-1.9,5.8l12,10.1l-3.7,15.2c-0.7,2.9,2.4,5.1,4.9,3.6l13.3-8.3l13.3,8.3 c2.5,1.6,5.6-0.7,4.9-3.6l-3.7-15.2l12-10.1C238.312,79.925,237.112,76.325,234.212,76.025z M304.612,76.025l-15.6-1.1l-5.9-14.5 c-1.1-2.7-5-2.7-6.1,0l-5.9,14.5l-15.6,1.1c-2.9,0.2-4.1,3.9-1.9,5.8l12,10.1l-3.7,15.2c-0.7,2.9,2.4,5.1,4.9,3.6l13.3-8.3 l13.3,8.3c2.5,1.6,5.6-0.7,4.9-3.6l-3.7-15.2l12-10.1C308.712,79.925,307.513,76.325,304.612,76.025z M401.313,435.925 c1.4-1.7,0.2-4.2-2-4.2h-57.1v50h57c2.2,0,3.4-2.6,2-4.3l-15.9-19.4c-0.5-0.6-0.5-1.5,0-2.2L401.313,435.925z M88.412,436.025 l15.9,19.4c0.5,0.6,0.5,1.5,0,2.2l-16,19.9c-1.4,1.7-0.2,4.2,2,4.2h57.1v-50h-57C88.212,431.725,87.012,434.325,88.412,436.025z M344.612,173.825h68.2v52.4c0,37.6-30.6,68.3-68.3,68.3h-8.9c-12.9,28.4-38.7,49.7-69.9,56.5v42.8h24.5c7.5,0,13.7,6.1,13.7,13.7 v17.9h20.9v64.1h-160.1v-64.1h20.9v-17.9c0-7.5,6.1-13.7,13.7-13.7h24.5v-42.8c-31.2-6.7-57-28-69.9-56.5h-8.9 c-37.6,0-68.3-30.6-68.3-68.3v-52.4h68.3v-31.9h199.6L344.612,173.825L344.612,173.825z M145.212,260.025c-0.1-2.2-0.2-4.3-0.2-6.5 v-45h-33.7v17.8c0,18.6,15.1,33.7,33.7,33.7H145.212z M217.112,428.625v34.3h55.4v-34.3H217.112z M286.913,221.725l-26.7-1.9 l-10.1-24.8c-1.9-4.7-8.5-4.7-10.4,0l-10.1,24.8l-26.8,1.9c-5,0.4-7.1,6.7-3.2,9.9l20.5,17.3l-6.4,26c-1.2,4.9,4.1,8.8,8.4,6.1 l22.8-14.1l22.8,14.1c4.3,2.7,9.6-1.2,8.4-6.1l-6.4-26l20.5-17.3C294.013,228.425,291.913,222.125,286.913,221.725z M344.612,208.425v45c0,2.2-0.1,4.4-0.2,6.5h0.2c18.6,0,33.7-15.1,33.7-33.7v-17.8L344.612,208.425L344.612,208.425z"></path> </g> </g></svg>