<?xml version="1.0" encoding="utf-8"?>
<!-- Generator: Adobe Illustrator 16.0.0, SVG Export Plug-In . SVG Version: 6.00 Build 0)  -->
<!DOCTYPE svg PUBLIC "-//W3C//DTD SVG 1.1//EN" "http://www.w3.org/Graphics/SVG/1.1/DTD/svg11.dtd">
<svg version="1.1" id="Layer_1" xmlns="http://www.w3.org/2000/svg" xmlns:xlink="http://www.w3.org/1999/xlink" x="0px" y="0px"
	 width="864px" height="864px" viewBox="0 0 864 864" enable-background="new 0 0 864 864" xml:space="preserve">
<path fill-rule="evenodd" clip-rule="evenodd" d="M630.402,207.473c-13.934-13.951-27.354-27.755-41.18-41.143
	c-18.4-17.821-38.086-34.42-55.457-53.176c-23.052-24.89-21.233-56.594,2.469-77.049c20.489-17.683,49.972-13.806,65.154,8.557
	c4.654,6.854,3.957,13.136-1.732,19.111c-5.521,5.798-11.431,6.271-17.938,1.839c-1.534-1.045-3.187-1.922-4.692-3.005
	c-8.066-5.804-16.387-7.606-24.306-0.232c-6.5,6.053-6.238,17.845,1.479,26.413c14.408,15.996,29.384,31.499,44.499,46.838
	c15.895,16.13,32.062,32.003,48.562,47.508c2.262,2.125,7.714,2.977,10.697,1.833c11.236-4.308,29.843-0.291,37.744,8.809
	c2.091,2.408,5.082,4.037,7.679,6c0.284,0.215,0.716,0.216,1.037,0.399c8.403,4.784,8.622,16.361,10.807,17.672
	c5.509,3.305,11.29,20.261,9.226,26.064c-3.327,9.354-0.317,14.948,6.242,21.306c35.209,34.128,70.021,68.667,104.968,103.064
	c0.795,0.782,1.604,1.553,2.357,2.373c5.612,6.115,12.444,12.414,4.526,20.945c-8.546,9.206-14.321,1.264-20.24-4.319
	c-37.83-35.685-75.676-71.354-113.532-107.011c-1.292-1.216-2.752-2.251-5.001-4.074c-6.575,7.085-12.81,13.802-19.234,20.723
	c13.254,16.324-9.625,16.857-11.733,27.686c3.955,2.796,8.271,5.847,15.17,10.723c-16.395,15.46-31.043,31.104-47.556,44.439
	c-28.684,23.161-61.491,38.222-97.755,46.159c-5.407,1.183-12.037,8.741-13.367,14.453c-4.93,21.158-0.01,40.761,15.752,56.355
	c12.092,11.963,27.494,11.401,42.311-0.196c2.862-2.24,6.021-4.102,10.18-4.906c-2.862,12.337-10.687,21.238-20.386,27.276
	c-11.532,7.18-24.16,13.082-37.017,17.483c-8.762,2.999-9.378,6.629-6.035,13.725c6.159,13.074,12.689,26.015,18.038,39.421
	c11.09,27.791-0.809,64.987-25.421,82.168c-33.234,23.198-66.463,46.453-89.585,80.851c-4.535,6.747-8.677,13.758-13.65,21.683
	c-8.288-3.512-14.007-16.99-27.419-5.321c-1.684-12.106-3.623-21.783-4.242-31.543c-0.846-13.345-0.382-26.771-1.141-40.125
	c-0.244-4.292-2.079-11.771-4.054-12.07c-5.79-0.878-14.449-1.078-17.61,2.414c-8.958,9.898-18.218,20.575-12.651,36.541
	c1.788,5.126-0.81,11.658-0.774,17.543c0.105,17.728-1.623,35.818,1.319,53.095c4.316,25.344,20.368,41.404,46.806,45.391
	c0.994,0.149,1.874,0.342,3.296,1.153c-2.792,8.577-9.088,9.367-15.922,7.503c-22.688-6.188-39.14-19.763-41.97-43.719
	c-2.418-20.477-1.604-41.405-1.2-62.114c0.204-10.375,2.007-20.065-4.609-29.869c-2.404-3.564,0.33-11.856,2.664-17.131
	c8.95-20.226,14.335-23.037,36.005-20.523c5.906,0.686,10.07,0.421,13.549-6.179c2.62-4.969,8.581-9.008,13.96-11.519
	c12.167-5.68,26.16-9,23.303-27.362c-0.213-1.373,1.299-3.782,2.653-4.51c12.514-6.721,8.182-15.922,3.342-24.583
	c-3.22-5.764-7.526-11.024-11.981-15.934c-1.517-1.671-4.974-1.581-7.544-2.297c-0.284,2.636-1.658,5.798-0.679,7.822
	c7.272,15.048,1.903,27.633-7.655,38.975c-6.211,7.37-14.841,9.662-24.325,6.937c-8.583-2.468-15.727-6.726-20.538-17.865
	c11.208,4.565,18.197,17.311,28.587,9.989c7.561-5.327,12.248-14.729,18.217-22.315c-0.617-1.285-1.233-2.569-1.849-3.854
	c-10.67-1.471-21.339-2.942-32.009-4.415c-1.269,0.041-1.493-0.633-0.627-2.349c6.882-2.671,13.706-5.506,20.662-7.967
	c7.521-2.661,12.088-7.122,14.416-15.312c3.645-12.82,8.952-25.168,13.517-37.729c7.983-21.963,7.243-43.708-1.859-65.168
	c-8.65-20.397-23.136-23.672-35.502-5.552c-9.276,13.594-15.177,30.358-18.964,46.556c-3.05,13.044-0.689,27.351-0.725,41.098
	c-0.009,3.481-0.001,6.963-0.001,12.932c-4.519-4.123-7.003-6.391-10.3-9.398c-13.297,22.436-4.64,45.023-1.474,67.341
	c-0.837,0.954-1.51,1.178-2.58,1.142c-2.062-2.567-4.43-4.948-6.139-7.733c-11.255-18.35-22.259-36.854-33.637-55.128
	c-1.91-3.068-5.24-5.253-8.503-8.417c-5.594,9.067,0.027,14.04,3.429,19.327c7.218,11.218,14.472,22.425,22.097,33.367
	c4.075,5.847,2.591,9.343-3.247,12.366c-10.567,5.472-21.238,6.268-32.125,1.204c-29.6-13.767-43.411-38.293-46.12-69.631
	c-0.715-8.267-3.16-11.074-11.494-12.51c-55.878-9.618-84.623-62.749-82.153-106.633c0.095-1.694-0.433-4.153,3.489-5.513
	c1.527,5.016,3.325,9.968,4.534,15.061c4.732,19.951,18.19,31.358,37.198,35.686c37.484,8.532,70.031-12.196,80.509-50.621
	c9.519-34.9,1.662-55.251-31.039-83.738c-24.843-21.64-55.252-32.904-86.966-40.635c-1.804-0.439-3.626-0.838-5.377-1.439
	c-1.01-0.348-1.893-1.064-3.458-1.982c0.43-2.978,0.88-6.091,1.254-8.676c-34.646-17.882-68.7-8.658-102.715,0.393
	c-5.006,1.332-9.837,3.517-14.754,4.917c-5.735,1.633-13.492,1.985-17.6,0.179c-7.121-3.131-10.893-11.015-9.269-21.762
	c2.589-17.137,10.697-28.388,24.889-37.056c24.642-15.052,51.025-25.496,78.911-32.723c4.477-1.16,8.432-5.687,11.823-9.393
	c6.125-6.696,7.712-14.877,14.554-20.621c3.011-2.527,9.508-6.537,14.6-1.693c0.807,0.768,3.615,8.47,3.963,12.302
	c1.326,14.57,1.488,29.237,10.135,34.278c8.4,4.896,16.625,17.3,31.474,12.054c6.088-2.152,15.625,3.109,22.743,6.69
	c16.225,8.16,31.92,17.372,47.838,26.141c2.712,1.494,5.463,2.913,7.933,4.227c-1.12-11.787-3.78-22.765-2.772-33.395
	c1.329-13.99,9.111-25.646,19.615-35.227c8.328-7.595,16.361-14.867,22.956-24.777c7.888-11.855,21.389-19.975,34.217-31.26
	c3.423,7.568,5.888,13.02,8.475,18.736c33.24-5.279,66.732-10.597,100.225-15.917c-0.165-1.465-0.329-2.931-0.493-4.396
	c-8.678,0-18.552,2.589-25.699-0.719c-7.339-3.397-12.013-12.554-19.417-20.968c8.039-1.874,14.349-3.345,20.657-4.816
	c-0.335-1.162-0.671-2.323-1.007-3.485c-29.388,1.294-56.95,9.218-82.753,24.387c-26.212,15.412-45.297,37.766-61.036,61.743
	c-13.106-17.219-26.472-33.772-38.619-51.176c-5.623-8.055-2.442-17.137,2.09-25.338c14.955-27.061,38.947-44.362,64.748-59.508
	c26.078-15.308,54.319-21.625,84.546-18.583c8.829,0.888,14.542,4.201,17.947,13.589c10.091,27.809,25.076,52.898,45.059,74.973
	c5.675,6.268,10.392,7.521,16.721,1.523c5.627-5.333,11.201-10.872,17.546-15.231c3.011-2.068,7.94-5.624,11.727-2.281
	c3.13,4.265-0.057,8.337-2.144,10.64c-7.137,7.871-15.211,14.89-22.53,21.857c9.902,15.531,22.388,30.635,29.753,47.92
	c7.376,17.312,9.638,36.804,14.452,56.618c8.831,0.033,12.288-11.445,16.451-19.342c0.986,0.177,1.384,0.691,2.196,2.396
	c0,8.656,1.602,17.69-0.34,25.886c-3.818,16.116-14.108,27.453-28.35,36.816c-10.014,6.583-16.907,17.913-26.303,28.355
	c12.701,7.27,24.888,9.315,37.349,7.914c36.748-4.131,63.107-22.219,75.547-58.19c0.554-1.601,1.653-3.887,2.933-4.229
	c12.171-3.246,10.794-10.917,7.25-19.941C617.279,235.358,619.915,220.96,630.402,207.473z M477.348,171.319
	c0.655-9.174,12.232-11.359,5.622-15.957c-3.032-2.109-8.041-2.5-12.001-1.942c-14.286,2.01-28.496,4.6-42.696,7.175
	c-19.691,3.569-39.802,5.773-58.911,11.374c-26.283,7.705-50.14,20.674-67.824,42.676c-11.67,14.52-14.04,30.913-5.625,43.2
	c2.368,3.457,6.869,5.453,10.391,8.12c2.617,1.11,3.654,0.073,2.357-2.371c-6.57-14.063-7.105-28.354,3.469-39.649
	c11.276-12.043,23.964-23.106,37.417-32.648c8.969-6.361,19.614-9.312,29.919-13.789c2.023,1.383,1.613,1.809,2.048,2.713
	c-2.098,1.38-4.275,2.652-6.28,4.156c-13.85,10.393-28.786,19.692-41.021,31.733c-6.19,6.091-18.945,12.659-12.173,28.605
	c2.109,4.966,17.912-1.529,16.819,9.393c-14.635,3.058-21.711,11.054-19.23,19.292c4.125,13.693,15.056,18.302,36.371,15.334
	c11.281,29.423,54.052,53.382,92.506,51.821c23.377-0.949,50.956-19.486,56.611-38.625c-14.688-3.802-27.85,1.003-39.17,8.812
	c-24.541,16.927-57.884,15.022-78.425-6.187c-6.827-7.049-11.976-15.175-12.589-25.896c2.076,0.24,3.022,0.055,3.453,0.442
	c18.445,16.613,25.766,15.662,43.14-2.724c6.917-7.319,16.131-12.611,24.8-18.027c1.534-0.959,7.837-1.996,9.482,0.694
	c0.429,1.806-4.417,3.853-6.803,5.53c-6.579,4.626-14.589,7.988-19.604,13.906c-9.335,11.018-17.833,22.065-35.456,20.231
	c2.53,4.052,4.775,6.705,7.577,8.48c18.388,11.657,45.694,9.912,61.827-6.493c9.847-10.013,18.54-14.25,31.229-7.537
	c0.636,0.336,1.431,0.394,2.163,0.516c22.201,3.722,48.712-16.221,48.15-33.888c-10.539,0-21.461,2.074-31.152-0.495
	c-13.899-3.688-26.912-8.273-40.894-1.03c-1.629,0.844-5.765,1.302-6.818-1.191c-0.476-3.186,1.216-5.05,2.805-6.134
	c6.409-4.367,4.886-9.18,1.675-14.423c-1.401-2.287-6.223-7.089-3.748-8.724c5.604-3.83,12.3,4.63,16.04,10.239
	c2.057,3.084,4.821,6.609,8.057,7.808c6.889,2.554,14.503,3.134,21.433,5.608c8.048,2.873,10.626,0.927,10.605-7.65
	c-0.054-21.326-5.282-41.162-15.562-59.694C501.654,173.871,493.512,155.81,477.348,171.319z M454.323,471.607
	c3.528,4.85,5.842,8.572,8.702,11.812c2.998,3.397,6.521,6.33,9.816,9.466c3.258-4.729,7.31-9.128,9.461-14.317
	c1.194-2.875-0.231-7.264-1.422-10.637c-9.256-26.238-8.333-52.077,0.042-78.577c4.04-12.788,4.6-26.805,5.689-40.351
	c0.7-8.713-3.987-10.861-12.053-7.107c-22.596,10.513-45.469,9.089-68.177,0.359c-8.733-3.357-21.825-10.371-30.383-14.178
	c-1.018,0.634,7.454,27.332,12.181,37.813c8.58,19.021,17.381,37.702,17.641,59.21c0.036,2.982,2.688,7.191,5.335,8.667
	c12.155,6.77,19.205,16.996,23.35,29.946c2.23,6.969,5.521,13.599,9.039,22.082C447.854,480.123,450.467,476.685,454.323,471.607z
	 M131.649,236.844c-1.14,0.202-2.278,0.403-3.417,0.604c-0.927-3.189-2.147-6.326-2.731-9.577
	c-2.493-13.884-3.196-15.359-15.962-10.55c-23.846,8.98-47.237,19.235-70.493,29.68c-9.243,4.151-15.284,12.045-15.523,22.723
	c-0.114,5.077-0.201,11.687,2.702,14.802c2.232,2.394,9.67,1.757,13.919,0.155c28.019-10.566,56.592-19.566,86.737-16.199
	c15.615,1.744,24.628-3.987,31.284-16.187c3.214-5.893,8.149-13.216,6.939-18.709c-3.666-16.643-9.166-53.314-15.73-50.594
	C139.223,181.753,131.973,216.946,131.649,236.844z M409.212,104.584c-7.388-16.014-14.947-32.801-23.024-49.335
	c-0.905-1.853-4.903-3.475-7.199-3.171c-23.587,3.115-43.921,13.92-63.813,26.517c11.767,16.285,22.616,31.656,34.04,46.585
	c1.201,1.57,6.196,1.564,8.748,0.558C374.782,119.105,391.411,111.999,409.212,104.584z M524.736,79.888
	c0.212,8.014,5.698,17.313,12.926,24.709c31.078,31.798,63.372,62.413,95.498,93.17c1.927,1.844,4.631,5.331,9.466,1.684
	c3.464-3.27,0.02-7.276-1.794-9.14c-17.825-18.316-36.296-36.005-54.076-54.363c-14.658-15.133-29.354-30.339-42.654-46.639
	c-8.933-10.95-7.489-24.772,0.673-32.515c11.262-10.681,22.206-11.709,35.071-3.304c2.792,1.824,5.395,4.172,8.446,5.311
	c5.931,2.211,8.994-0.926,7.592-6.542c-0.902-3.615-3.612-7.402-6.584-9.767c-11.763-9.365-24.484-13.621-39.091-5.818
	C534.907,44.848,526.213,57.136,524.736,79.888z M673.063,263.962c-1.729,4.15,5.533,6.917,7.608,5.533
	c6.928-7.612,12.522-15.157,19.449-22.768c2.461-1.656,3.706,1.135,3.168,1.898c-4.227,7.615-16.047,22.253-13.426,24.19
	c3.258,2.213,5.979,0.61,7.764-0.098c11.961-4.745,23.114-21.796,22.551-34.606c-0.122-2.771-1.741-5.485-2.6-8.175
	c-1.698-5.319-5.849-5.319-8.688-12.527c-0.791-2.008,0.437-9.174-8.301-14.635c-8.526-5.329-7.427-2.184-12.669-8.737
	c-1.216-1.969-5.897-3.495-9.663-2.529c-0.449,2.832-1.033,5.65-1.315,8.499c-0.422,4.271,0.54,9.122-1.178,12.729
	c-3.471,7.284-8.931,13.613-12.463,20.875c-2.818,5.793-4.476,12.297-5.63,18.67c-0.38,2.097,1.215,6.151,3.778,7.178
	c2.277,1.047,4.802-2.77,6.476-4.765c4.696-5.6,9.004-11.524,13.465-17.321c0.922-1.66,4.014-0.887,2.718,1.765
	C680.877,248.415,676.295,254.683,673.063,263.962z M659.538,189.661c-1.216,14.633-7.837,21.474-20.575,22.628
	c-2.711,0.246-5.919,4.508-7.352,7.629c-4.996,10.881-7.514,22.836,0.895,32.582c11.004,12.754,23.38,24.411,35.964,35.646
	c2.725,2.434,9.805,4.886,13.323,0.992c3.375-3.735,2.439-8.299,1.136-9.244c-5.439-3.937-11.593-7.3-17.966-9.431
	c-9.062-3.029-13.551-8.206-12.791-17.975c0.518-6.652,1.434-13.891-8.283-15.499c-0.441-0.073-1.13-5.588,0.098-6.973
	c1.372-1.548,5.566-0.442,7.193-1.944c5.666-5.23,12.26-10.322,15.625-16.93C670,204.867,669.308,196.834,659.538,189.661z
	 M834.215,388.11c3.112-1.037,4.495-3.112,4.495-5.187c-7.953-9.683-121.382-118.961-121.382-118.961
	c-1.383,3.804-3.724,6.899-5.187,6.917C754.356,311.1,794.049,349.84,834.215,388.11z M673.036,309.507
	c-12.525-10.479-24.813-20.91-37.308-31.089c-2.638-2.148-5.268-5.544-8.312-7.193c-3.458,4.496-6.415,5.723-4.149,8.3
	c8.52,9.69,23.616,24.204,33.048,33.024C664.235,319.956,667.379,318.932,673.036,309.507z M376.626,434.906
	c0-2.029,0.388-3.268-0.057-4.005c-12.211-20.259-39.542-26.647-57.76-11.641c-12.395,10.208-22.311,23.45-33.122,35.524
	c-1.422,1.588-4.188,4.966-2.332,6.494c1.895,1.972,5.97-2.288,7.631-4.397c5.022-6.374,9.217-13.5,14.793-19.318
	c20.895-21.799,41.556-34,65.732-4.821C372.421,433.838,374.435,434.018,376.626,434.906z M151.954,276.406
	c2.927,4.585,10.335,4.087,12.025,2.046c8.714-10.528,18.725-24.122,26.012-35.708c1.496-2.379-0.62-5.976-3.422-7.928
	c-1.068-0.744-5.479-0.343-6.432,0.976C171.111,248.268,162.507,261.051,151.954,276.406z M270.136,128.213
	c-6.345,3.5-6.801,7.68-2.016,13.15c5.109,5.84,9.919,11.946,14.779,18c4.923,6.132,9.746,12.344,15.012,19.029
	C304.043,168.086,290.438,145.049,270.136,128.213z M304.702,277.559c-0.531,1.143-1.06,2.285-1.591,3.427
	c9.374,7.554,18.473,15.498,28.318,22.375c2.354,1.644,7.192-0.268,11.522-0.593C328.676,293.36,316.689,285.459,304.702,277.559z"
	/>
<path fill-rule="evenodd" clip-rule="evenodd" d="M390.844,199.377c-2.824-10.123,1.077-16.895,9.383-20.039
	c3.896-1.474,9.002,0.25,13.654,2.519C399.584,180.93,393.848,186.979,390.844,199.377z"/>
<path fill-rule="evenodd" clip-rule="evenodd" d="M471.159,386.571c-2.217-1.876-3.196-2.477-3.421-2.679
	c-19.206-17.297-37.325-9.978-55.297,2.326c-1.748,1.196-3.771,2.369-8.132,4.275c1.391-14.118,2.337-28.646,3.581-41.27
	l4.946,1.705c1.486,2.644,1.609,10.558,3.226,21.864c5.239-2.362,10.547-3.835,14.754-6.848c8.134-5.826,14.954-5.364,23.113,0.475
	c10.888,7.79,12.229,6.687,16.63-5.849c1.535-4.374,4.702-8.174,7.126-12.236c1.38,0.71,2.761,1.421,4.142,2.131
	C478.496,361.727,474.524,375.186,471.159,386.571z"/>
<path fill-rule="evenodd" clip-rule="evenodd" d="M81.851,257.727c-6.01,2.233-12.043,4.407-18.025,6.716
	c-6.438,2.485-12.829,5.098-19.24,7.656c-0.443-0.932-0.887-1.862-1.33-2.794c11.841-5.691,23.683-11.383,35.524-17.074
	C79.804,254.062,80.827,255.895,81.851,257.727z"/>
<path fill-rule="evenodd" clip-rule="evenodd" d="M80.414,240.244c-10.499,5.172-21,10.343-31.499,15.516
	c-0.611-1.151-1.222-2.3-1.833-3.451c10.284-5.595,20.568-11.19,30.853-16.785C78.761,237.097,79.588,238.67,80.414,240.244z"/>
<circle fill-rule="evenodd" clip-rule="evenodd" cx="418.371" cy="225.057" r="7.435"/>
<circle fill-rule="evenodd" clip-rule="evenodd" cx="496.307" cy="202.599" r="7.435"/>
<path fill-rule="evenodd" clip-rule="evenodd" d="M355.416,234.223c0.382,1.016-0.133,2.149-1.149,2.531l-15.543,5.829
	c-1.016,0.383-2.149-0.134-2.53-1.149l0,0c-0.382-1.017,0.133-2.149,1.149-2.531l15.543-5.83
	C353.902,232.689,355.036,233.205,355.416,234.223L355.416,234.223z"/>
<path fill-rule="evenodd" clip-rule="evenodd" d="M352.414,227.998c0.305,0.812-0.107,1.72-0.919,2.025l-12.435,4.664
	c-0.812,0.306-1.72-0.107-2.024-0.92l0,0c-0.305-0.813,0.107-1.719,0.919-2.025l12.435-4.664
	C351.203,226.771,352.109,227.184,352.414,227.998L352.414,227.998z"/>
</svg>
